<?xml version="1.0" encoding="UTF-8"?>
<svg version="1.1" xmlns="http://www.w3.org/2000/svg" width="610" height="444">
<path d="M0 0 C3.98467917 0.00514232 7.96935016 0.0003462 11.9540298 -0.00277233 C18.63841885 -0.00638799 25.32276338 -0.00167611 32.00714564 0.00790882 C39.68537948 0.01879317 47.36350705 0.01525816 55.04173833 0.00425601 C61.68949063 -0.00488057 68.33721133 -0.00607143 74.98496789 -0.00086665 C78.93120628 0.00221776 82.87739508 0.00276144 86.82363009 -0.00393963 C148.20699928 -0.09366 148.20699928 -0.09366 171.43463588 22.14365101 C192.67060827 44.42187971 192.51068659 73.85836294 192.45026088 102.78427601 C192.45161256 105.09773264 192.45355725 107.41118899 192.45605922 109.72464466 C192.45898448 114.538495 192.45479582 119.35227041 192.44537807 124.16611195 C192.43395933 130.29715501 192.44057504 136.42802335 192.45252299 142.5590601 C192.45979026 147.3240637 192.45743186 152.08902666 192.45226741 156.85403156 C192.45094568 159.1135787 192.45252601 161.37312968 192.45722651 163.63267231 C192.50224758 191.3334528 189.96009303 214.31128128 169.51276088 234.96786976 C152.00575398 251.51050763 132.48673507 254.96881777 109.24713588 255.76865101 C92.83473181 255.37008684 92.83473181 255.37008684 78.18463588 261.26865101 C72.15306632 268.65107304 67.62848124 277.20573349 62.9912765 285.49716663 C59.27785423 291.95432089 55.51974446 297.62627922 48.18463588 300.26865101 C41.77335682 301.13875317 35.46549052 301.19475484 30.10651088 297.25302601 C25.58721961 292.58676592 22.45342108 286.8387598 19.18463588 281.26865101 C17.97445025 279.23555868 16.76096565 277.20448412 15.54571986 275.17441273 C14.7840691 273.89701967 14.02802154 272.61626267 13.27863002 271.33163929 C9.20007486 264.40235882 5.80417249 259.95762791 -1.81536412 257.26865101 C-8.37966701 256.24652084 -15.0765521 256.15245983 -21.70745397 255.97861195 C-54.04717963 255.09454089 -54.04717963 255.09454089 -67.81536412 247.26865101 C-69.03352818 246.64023304 -69.03352818 246.64023304 -70.27630162 245.99911976 C-86.4112204 237.16817841 -98.76427368 221.93328439 -104.50286412 204.51865101 C-108.30226105 190.18381202 -108.11122313 175.8774175 -108.08098912 161.16318226 C-108.08233982 158.8297417 -108.0842837 156.49630143 -108.08678746 154.16286182 C-108.08972261 149.28883638 -108.08549506 144.41488463 -108.07610631 139.54086781 C-108.06474475 133.34617831 -108.07126076 127.15166281 -108.08325124 120.95697975 C-108.09054074 116.14119162 -108.08814913 111.3254435 -108.08299565 106.50965405 C-108.08167701 104.2282932 -108.08324295 101.94692853 -108.08795476 99.66557217 C-108.1347378 70.64209929 -107.30106678 42.92274973 -85.71770787 21.07724476 C-62.43401917 -1.72775584 -30.34589535 -0.0515739 0 0 Z " fill="#946EFE" transform="translate(262.81536412239075,-0.26865100860595703)"/>
<path d="M0 0 C3.16933393 4.33142303 2.24161259 9.381042 1.875 14.5625 C-1.67032244 14.74065691 -2.79968733 14.78946233 -5.8125 12.6875 C-10.74896442 9.5207115 -15.78624869 8.02316325 -21.6640625 8.97265625 C-25.01051104 9.97005052 -27.51713593 11.04673655 -30.1875 13.3125 C-31.56998603 16.63046648 -31.55516765 18.99825378 -31.125 22.5625 C-28.19812656 28.09021542 -24.61346466 30.53565682 -19.375 33.5625 C-17.93348761 34.4312614 -16.49336512 35.30233346 -15.0546875 36.17578125 C-14.37116211 36.58779785 -13.68763672 36.99981445 -12.98339844 37.42431641 C-4.49299532 42.62429793 2.80738354 48.76967671 5.875 58.5625 C6.18082695 61.31494253 6.35447084 63.76173051 6.3125 66.5 C6.30347656 67.20439209 6.29445313 67.90878418 6.28515625 68.63452148 C6.01923799 76.60560604 3.84994766 80.8884116 -1.75 86.375 C-8.54333643 91.89537357 -16.54850208 93.39738033 -25.125 92.5625 C-33.09457772 91.66109354 -41.40092596 88.28657404 -47.125 82.5625 C-47.3203125 79.5234375 -47.3203125 79.5234375 -47.25 75.9375 C-47.23195312 74.74898438 -47.21390625 73.56046875 -47.1953125 72.3359375 C-47.17210937 71.42070312 -47.14890625 70.50546875 -47.125 69.5625 C-45.34375 68.89453125 -45.34375 68.89453125 -43.125 68.5625 C-41.40625 69.63671875 -41.40625 69.63671875 -39.625 71.25 C-33.81238939 75.89141295 -26.31917658 79.1180115 -18.75 78.625 C-14.27981166 77.31477238 -12.36145493 75.87789285 -9.125 72.5625 C-7.43055384 67.47916151 -7.3065954 63.30605762 -9.5625 58.5 C-14.56774451 52.76228068 -20.41923632 48.89225267 -27.0625 45.25 C-34.48329526 41.0407653 -42.66571527 35.11265573 -45.125 26.5625 C-45.95662 19.23549013 -46.29918045 12.29647695 -41.66796875 6.23828125 C-29.93126063 -6.50867517 -15.36441892 -7.0676327 0 0 Z " fill="#F0F0F0" transform="translate(288.125,320.4375)"/>
<path d="M0 0 C1.093125 0.00257813 2.18625 0.00515625 3.3125 0.0078125 C4.405625 0.00523437 5.49875 0.00265625 6.625 0 C9.3125 0.1328125 9.3125 0.1328125 10.3125 1.1328125 C10.43459924 2.54398952 10.49020872 3.96101709 10.51782227 5.37719727 C10.53776749 6.27805557 10.55771271 7.17891388 10.57826233 8.10707092 C10.59497482 9.08622971 10.61168732 10.06538849 10.62890625 11.07421875 C10.64968735 12.07162582 10.67046844 13.0690329 10.69187927 14.09666443 C10.75748637 17.29614093 10.81631134 20.49570232 10.875 23.6953125 C10.91817462 25.85873289 10.96178855 28.02214456 11.00585938 30.18554688 C11.11317903 35.50121124 11.21492427 40.81696084 11.3125 46.1328125 C12.42270508 45.48795898 13.53291016 44.84310547 14.67675781 44.17871094 C20.63619613 40.71722006 26.74278577 40.16990843 33.5 41.59375 C38.41452479 43.17607806 41.68313863 45.61471945 44.3125 50.1328125 C47.78023529 57.93730589 47.71007749 65.47856044 47.59375 73.85595703 C47.56218949 76.15543605 47.55273032 78.45423064 47.546875 80.75390625 C47.53771924 82.21355012 47.52734807 83.67318699 47.515625 85.1328125 C47.50925018 86.16547241 47.50925018 86.16547241 47.50274658 87.21899414 C47.42977972 92.01553278 47.42977972 92.01553278 46.3125 93.1328125 C44.31450428 93.23155066 42.31292842 93.26253049 40.3125 93.2578125 C39.219375 93.26039063 38.12625 93.26296875 37 93.265625 C34.3125 93.1328125 34.3125 93.1328125 33.3125 92.1328125 C33.1779772 89.90098267 33.10880325 87.66516581 33.06640625 85.4296875 C33.03344862 84.04296289 33.00023732 82.6562443 32.96679688 81.26953125 C32.91951001 79.07963486 32.87512508 76.88975942 32.83569336 74.69970703 C32.79578445 72.58859741 32.74426601 70.47800712 32.69140625 68.3671875 C32.65382202 66.46791504 32.65382202 66.46791504 32.61547852 64.53027344 C32.32354181 61.25663029 31.88921049 59.00527447 30.3125 56.1328125 C26.14773898 54.17292496 24.06751662 53.91526534 19.625 55.1953125 C15.20082112 57.78303977 12.93276259 60.27202473 11.3125 65.1328125 C11.17380782 67.18495632 11.0874085 69.24081663 11.03125 71.296875 C10.99386719 72.50085938 10.95648438 73.70484375 10.91796875 74.9453125 C10.84744029 77.4947857 10.77712911 80.04426492 10.70703125 82.59375 C10.66964844 83.79515625 10.63226563 84.9965625 10.59375 86.234375 C10.54831055 87.89460693 10.54831055 87.89460693 10.50195312 89.58837891 C10.3125 92.1328125 10.3125 92.1328125 9.3125 93.1328125 C7.31450428 93.23155066 5.31292842 93.26253049 3.3125 93.2578125 C2.219375 93.26039063 1.12625 93.26296875 0 93.265625 C-2.6875 93.1328125 -2.6875 93.1328125 -3.6875 92.1328125 C-3.78803508 89.3077792 -3.82365716 86.50715965 -3.81689453 83.68164062 C-3.81864685 82.79552597 -3.82039917 81.90941132 -3.82220459 80.9964447 C-3.8266244 78.05229768 -3.82368467 75.10821019 -3.8203125 72.1640625 C-3.8209855 70.12764474 -3.8219555 68.09122706 -3.82321167 66.05480957 C-3.82468882 61.78083534 -3.82253355 57.50688197 -3.81787109 53.23291016 C-3.8121738 47.74122711 -3.81545271 42.24959293 -3.82144356 36.75791168 C-3.82504872 32.55104196 -3.82391079 28.34418391 -3.82131577 24.13731384 C-3.82064637 22.11181126 -3.82147535 20.08630764 -3.82379532 18.06080627 C-3.8263211 15.2351702 -3.8224823 12.40961443 -3.81689453 9.58398438 C-3.81891876 8.73823349 -3.82094299 7.8924826 -3.82302856 7.02110291 C-3.7978606 0.18768497 -3.7978606 0.18768497 0 0 Z " fill="#E7E7E7" transform="translate(376.6875,317.8671875)"/>
<path d="M0 0 C7.2322967 5.1484146 10.77834182 10.62057391 12.84375 19.3125 C13.94343805 26.8478624 12.38431338 34.42549896 8.21484375 40.8046875 C3.16164136 47.0318662 -2.31237476 50.37660937 -10.25390625 51.6484375 C-14.09658487 51.84706502 -17.32488851 51.02363249 -20.90234375 49.78515625 C-21.70212646 49.5106665 -22.50190918 49.23617676 -23.32592773 48.95336914 C-24.23193726 48.63613892 -24.23193726 48.63613892 -25.15625 48.3125 C-25.18130615 48.9737085 -25.2063623 49.63491699 -25.23217773 50.31616211 C-25.34778102 53.29432305 -25.47066754 56.2721392 -25.59375 59.25 C-25.63306641 60.29091797 -25.67238281 61.33183594 -25.71289062 62.40429688 C-25.75478516 63.39365234 -25.79667969 64.38300781 -25.83984375 65.40234375 C-25.89483032 66.77700806 -25.89483032 66.77700806 -25.95092773 68.17944336 C-26.15625 70.3125 -26.15625 70.3125 -27.15625 71.3125 C-29.15424572 71.41123816 -31.15582158 71.44221799 -33.15625 71.4375 C-34.249375 71.44007813 -35.3425 71.44265625 -36.46875 71.4453125 C-39.15625 71.3125 -39.15625 71.3125 -40.15625 70.3125 C-40.25581278 68.1398732 -40.28424719 65.96396894 -40.28564453 63.7890625 C-40.28739685 63.10777283 -40.28914917 62.42648315 -40.29095459 61.72454834 C-40.29537242 59.46217333 -40.29243538 57.19987587 -40.2890625 54.9375 C-40.28973556 53.3719074 -40.2907056 51.8063149 -40.29196167 50.24072266 C-40.29343855 46.95539355 -40.29128441 43.67009158 -40.28662109 40.38476562 C-40.2809238 36.16429484 -40.28420286 31.94388764 -40.29019356 27.72341919 C-40.29379944 24.48933428 -40.29266046 21.25526455 -40.29006577 18.0211792 C-40.28939657 16.46457919 -40.29022466 14.90797782 -40.29254532 13.35137939 C-40.2950723 11.17952804 -40.29123065 9.00778104 -40.28564453 6.8359375 C-40.28484894 5.59763184 -40.28405334 4.35932617 -40.28323364 3.08349609 C-40.15625 0.3125 -40.15625 0.3125 -39.15625 -0.6875 C-37.34697719 -0.81237758 -35.53228893 -0.86320846 -33.71875 -0.875 C-32.73003906 -0.88917969 -31.74132812 -0.90335937 -30.72265625 -0.91796875 C-28.15625 -0.6875 -28.15625 -0.6875 -26.15625 1.3125 C-25.41375 0.838125 -24.67125 0.36375 -23.90625 -0.125 C-16.69564563 -4.2219343 -7.15252733 -4.22116367 0 0 Z M-22.67578125 12.6796875 C-26.45115862 17.05346762 -27.46591839 20.51174778 -27.37109375 26.25390625 C-26.9067449 30.70321248 -24.93846033 33.53028967 -21.84375 36.625 C-17.55789055 39.31612105 -14.55536276 39.53341254 -9.59375 38.75 C-5.20871592 36.91625848 -3.84453568 35.18679406 -1.15625 31.3125 C0.519944 26.28391801 0.45017735 21.97219589 -1.34375 17.0625 C-3.986485 13.0528331 -6.40331186 10.84600291 -11.03125 9.4375 C-15.42709324 9.26166627 -19.28131187 9.62553767 -22.67578125 12.6796875 Z " fill="#EBEBEB" transform="translate(347.15625,361.6875)"/>
<path d="M0 0 C1.50046875 0.00386719 1.50046875 0.00386719 3.03125 0.0078125 C4.0315625 0.00523437 5.031875 0.00265625 6.0625 0 C8.53125 0.1328125 8.53125 0.1328125 9.53125 1.1328125 C9.6551134 3.2182307 9.70924067 5.30781391 9.73657227 7.39672852 C9.74647186 8.05036377 9.75637146 8.70399902 9.76657104 9.37744141 C9.79826634 11.54716314 9.82297492 13.7169068 9.84765625 15.88671875 C9.86821887 17.38745202 9.88921515 18.8881794 9.91062927 20.38890076 C9.96592155 24.34592943 10.01529911 28.30301099 10.06347656 32.26013184 C10.1136395 36.2952141 10.16935268 40.33021922 10.22460938 44.36523438 C10.3322784 52.28769527 10.43370379 60.21022054 10.53125 68.1328125 C12.5940622 65.27887136 14.65644198 62.42461799 16.71875 59.5703125 C17.29689453 58.77044922 17.87503906 57.97058594 18.47070312 57.14648438 C19.04111328 56.35693359 19.61152344 55.56738281 20.19921875 54.75390625 C20.76473953 53.97555923 21.33026031 53.19721222 21.91291809 52.39527893 C22.94879895 50.9470929 23.96515412 49.48461281 24.95561218 48.00498962 C28.19136386 43.20254295 28.19136386 43.20254295 31.86328125 42.44921875 C33.01183594 42.53042969 34.16039062 42.61164063 35.34375 42.6953125 C36.50519531 42.75847656 37.66664063 42.82164062 38.86328125 42.88671875 C39.74371094 42.96792969 40.62414062 43.04914063 41.53125 43.1328125 C42.2121582 44.87109375 42.2121582 44.87109375 42.53125 47.1328125 C41.39135742 49.17578125 41.39135742 49.17578125 39.63671875 51.3203125 C38.69795898 52.49207031 38.69795898 52.49207031 37.74023438 53.6875 C37.07314453 54.49445313 36.40605469 55.30140625 35.71875 56.1328125 C34.41762583 57.73458974 33.11933762 59.33867578 31.82421875 60.9453125 C30.95059692 62.00685547 30.95059692 62.00685547 30.05932617 63.08984375 C28.60334946 65.03641879 27.53913176 66.92681247 26.53125 69.1328125 C27.14234619 69.71772461 27.75344238 70.30263672 28.38305664 70.90527344 C30.64241357 73.07946518 32.8903365 75.26467448 35.13110352 77.45800781 C36.10355105 78.40529605 37.08043665 79.34805029 38.06176758 80.28613281 C39.47071317 81.63450158 40.86259373 83.00063143 42.25390625 84.3671875 C43.09703369 85.18413086 43.94016113 86.00107422 44.80883789 86.84277344 C46.53125 89.1328125 46.53125 89.1328125 46.29858398 91.43066406 C46.04536377 91.99237305 45.79214355 92.55408203 45.53125 93.1328125 C33.29245262 94.20222198 33.29245262 94.20222198 29.25390625 91.75 C27.54380833 89.95846885 26.0472445 88.08945607 24.53125 86.1328125 C23.41306187 85.12219057 22.2685677 84.13950779 21.09375 83.1953125 C20.248125 82.5146875 19.4025 81.8340625 18.53125 81.1328125 C14.88594608 82.60541872 13.16273808 84.56140887 10.84375 87.6953125 C9.94076172 88.90380859 9.94076172 88.90380859 9.01953125 90.13671875 C8.52839844 90.79542969 8.03726563 91.45414062 7.53125 92.1328125 C6.53125 93.1328125 6.53125 93.1328125 4.5 93.265625 C3.6853125 93.26304687 2.870625 93.26046875 2.03125 93.2578125 C1.2165625 93.26039063 0.401875 93.26296875 -0.4375 93.265625 C-2.46875 93.1328125 -2.46875 93.1328125 -3.46875 92.1328125 C-3.56928508 89.3077792 -3.60490716 86.50715965 -3.59814453 83.68164062 C-3.59989685 82.79552597 -3.60164917 81.90941132 -3.60345459 80.9964447 C-3.6078744 78.05229768 -3.60493467 75.10821019 -3.6015625 72.1640625 C-3.6022355 70.12764474 -3.6032055 68.09122706 -3.60446167 66.05480957 C-3.60593882 61.78083534 -3.60378355 57.50688197 -3.59912109 53.23291016 C-3.5934238 47.74122711 -3.59670271 42.24959293 -3.60269356 36.75791168 C-3.60629872 32.55104196 -3.60516079 28.34418391 -3.60256577 24.13731384 C-3.60189637 22.11181126 -3.60272535 20.08630764 -3.60504532 18.06080627 C-3.6075711 15.2351702 -3.6037323 12.40961443 -3.59814453 9.58398438 C-3.60016876 8.73823349 -3.60219299 7.8924826 -3.60427856 7.02110291 C-3.57912851 0.19254805 -3.57912851 0.19254805 0 0 Z " fill="#F3F3F3" transform="translate(187.46875,317.8671875)"/>
<path d="M0 0 C20.79 0 41.58 0 63 0 C66 8 66 8 65 13 C56.42 13 47.84 13 39 13 C39.00523682 15.38790771 39.01047363 17.77581543 39.01586914 20.23608398 C39.03240517 28.10710171 39.04347128 35.97812019 39.05181217 43.84915066 C39.05704093 48.6234828 39.06413844 53.39779721 39.07543945 58.17211914 C39.0862686 62.77566262 39.09227689 67.37918899 39.09487724 71.98274422 C39.09673144 73.74309623 39.10035196 75.50344726 39.10573006 77.26379204 C39.11294086 79.72072277 39.11399093 82.17758195 39.11352539 84.63452148 C39.11712067 85.36963455 39.12071594 86.10474762 39.12442017 86.86213684 C39.11405216 91.88594784 39.11405216 91.88594784 38 93 C36.00200428 93.09873816 34.00042842 93.12971799 32 93.125 C30.906875 93.12757813 29.81375 93.13015625 28.6875 93.1328125 C26 93 26 93 25 92 C24.90499452 89.53555943 24.87442015 87.09925374 24.88647461 84.63452148 C24.88632858 83.86384338 24.88618256 83.09316528 24.8860321 82.2991333 C24.8867314 79.73975861 24.89452455 77.1804558 24.90234375 74.62109375 C24.90420787 72.85132385 24.9056318 71.08155344 24.90663147 69.31178284 C24.91045712 64.64448634 24.9202878 59.97722077 24.93133545 55.30993652 C24.94154856 50.55102965 24.94612887 45.79211779 24.95117188 41.03320312 C24.96191003 31.68878629 24.9795072 22.34440055 25 13 C16.09 13 7.18 13 -2 13 C-1 3 -1 3 0 0 Z " fill="#EEEEEE" transform="translate(30,318)"/>
<path d="M0 0 C4.74754328 4.21873277 6.74712432 9.64867006 7.3515625 15.89453125 C7.4231732 19.68989841 6.88931784 22.97137956 6.140625 26.71484375 C-5.409375 26.71484375 -16.959375 26.71484375 -28.859375 26.71484375 C-25.7793917 32.02365134 -25.7793917 32.02365134 -20.859375 34.71484375 C-14.27398137 36.27747953 -9.07619464 35.37919502 -2.859375 32.71484375 C-2.16328125 32.18375 -1.4671875 31.65265625 -0.75 31.10546875 C1.140625 29.71484375 1.140625 29.71484375 4.140625 29.71484375 C4.48274864 34.09909482 4.65026912 38.3394948 4.140625 42.71484375 C-0.11105643 47.28540129 -6.18578223 48.37157361 -12.2421875 48.9375 C-20.37631502 49.23073657 -27.70302484 47.79829584 -34.171875 42.65234375 C-40.20545396 36.79010375 -43.11444753 30.64430674 -43.421875 22.21484375 C-43.06155256 14.15499961 -41.06998354 7.70973064 -35.484375 1.77734375 C-25.27505281 -7.49394242 -11.21776217 -7.75345327 0 0 Z M-28.859375 12.71484375 C-28.859375 13.37484375 -28.859375 14.03484375 -28.859375 14.71484375 C-21.269375 14.71484375 -13.679375 14.71484375 -5.859375 14.71484375 C-7.34938724 9.86508713 -7.34938724 9.86508713 -9.984375 7.90234375 C-17.27313431 4.89176925 -23.78020281 6.56637216 -28.859375 12.71484375 Z " fill="#ECECEC" transform="translate(577.859375,364.28515625)"/>
<path d="M0 0 C4.74754328 4.21873277 6.74712432 9.64867006 7.3515625 15.89453125 C7.4231732 19.68989841 6.88931784 22.97137956 6.140625 26.71484375 C-5.409375 26.71484375 -16.959375 26.71484375 -28.859375 26.71484375 C-25.7793917 32.02365134 -25.7793917 32.02365134 -20.859375 34.71484375 C-14.27398137 36.27747953 -9.07619464 35.37919502 -2.859375 32.71484375 C-2.16328125 32.18375 -1.4671875 31.65265625 -0.75 31.10546875 C1.140625 29.71484375 1.140625 29.71484375 4.140625 29.71484375 C4.48274864 34.09909482 4.65026912 38.3394948 4.140625 42.71484375 C-0.11105643 47.28540129 -6.18578223 48.37157361 -12.2421875 48.9375 C-20.37631502 49.23073657 -27.70302484 47.79829584 -34.171875 42.65234375 C-40.20545396 36.79010375 -43.11444753 30.64430674 -43.421875 22.21484375 C-43.06155256 14.15499961 -41.06998354 7.70973064 -35.484375 1.77734375 C-25.27505281 -7.49394242 -11.21776217 -7.75345327 0 0 Z M-28.859375 12.71484375 C-28.859375 13.37484375 -28.859375 14.03484375 -28.859375 14.71484375 C-21.269375 14.71484375 -13.679375 14.71484375 -5.859375 14.71484375 C-7.34938724 9.86508713 -7.34938724 9.86508713 -9.984375 7.90234375 C-17.27313431 4.89176925 -23.78020281 6.56637216 -28.859375 12.71484375 Z " fill="#ECECEC" transform="translate(478.859375,364.28515625)"/>
<path d="M0 0 C0.33 -0.33 0.66 -0.66 1 -1 C2.66429051 -1.09823937 4.33281931 -1.12973631 6 -1.125 C7.36125 -1.12886719 7.36125 -1.12886719 8.75 -1.1328125 C11 -1 11 -1 12 0 C12.09831146 1.49870048 12.12798456 3.00198539 12.12939453 4.50390625 C12.13254669 5.46159912 12.13569885 6.41929199 12.13894653 7.40600586 C12.1369223 8.44764893 12.13489807 9.48929199 12.1328125 10.5625 C12.13376923 11.62412354 12.13472595 12.68574707 12.13571167 13.77954102 C12.13639364 16.02913472 12.13453819 18.27873037 12.13037109 20.52832031 C12.1250231 23.98507071 12.13031554 27.44169117 12.13671875 30.8984375 C12.13605797 33.07812529 12.13477682 35.257813 12.1328125 37.4375 C12.13483673 38.47914307 12.13686096 39.52078613 12.13894653 40.59399414 C12.13421829 42.03053345 12.13421829 42.03053345 12.12939453 43.49609375 C12.12859894 44.34357178 12.12780334 45.1910498 12.12698364 46.06420898 C12 48 12 48 11 49 C9.35659133 49.09854655 7.7088539 49.12972411 6.0625 49.125 C5.16660156 49.12757813 4.27070313 49.13015625 3.34765625 49.1328125 C1 49 1 49 -1 48 C-2.175625 48.474375 -3.35125 48.94875 -4.5625 49.4375 C-11.35965602 52.09992393 -17.98033754 51.70125822 -24.79296875 49.171875 C-31.42822467 45.64873026 -35.74039783 40.04464206 -38 33 C-40.20407565 25.18554996 -39.29922926 17.34457398 -36 10 C-27.16455223 -3.28741758 -14.24235744 -5.65653912 0 0 Z M-21 12 C-25.17753855 16.397409 -26.31526252 19.86049191 -26.21484375 25.94140625 C-25.7504949 30.39071248 -23.78221033 33.21778967 -20.6875 36.3125 C-16.40164055 39.00362105 -13.39911276 39.22091254 -8.4375 38.4375 C-4.05246592 36.60375848 -2.68828568 34.87429406 0 31 C1.676194 25.97141801 1.60642735 21.65969589 -0.1875 16.75 C-3.00885294 12.46932658 -5.40370236 10.44341601 -10.375 9.0625 C-14.7614267 8.98687195 -17.19180101 9.84441566 -21 12 Z " fill="#F7F7F7" transform="translate(125,362)"/>
<path d="M0 0 C1.093125 0.00257813 2.18625 0.00515625 3.3125 0.0078125 C4.405625 0.00523437 5.49875 0.00265625 6.625 0 C9.3125 0.1328125 9.3125 0.1328125 10.3125 1.1328125 C10.41303508 3.9578458 10.44865716 6.75846535 10.44189453 9.58398438 C10.44364685 10.47009903 10.44539917 11.35621368 10.44720459 12.2691803 C10.4516244 15.21332732 10.44868467 18.15741481 10.4453125 21.1015625 C10.4459855 23.13798026 10.4469555 25.17439794 10.44821167 27.21081543 C10.44968882 31.48478966 10.44753355 35.75874303 10.44287109 40.03271484 C10.4371738 45.52439789 10.44045271 51.01603207 10.44644356 56.50771332 C10.45004872 60.71458304 10.44891079 64.92144109 10.44631577 69.12831116 C10.44564637 71.15381374 10.44647535 73.17931736 10.44879532 75.20481873 C10.4513211 78.0304548 10.4474823 80.85601057 10.44189453 83.68164062 C10.44391876 84.52739151 10.44594299 85.3731424 10.44802856 86.24452209 C10.42676241 92.01855009 10.42676241 92.01855009 9.3125 93.1328125 C7.31450428 93.23155066 5.31292842 93.26253049 3.3125 93.2578125 C2.219375 93.26039063 1.12625 93.26296875 0 93.265625 C-2.6875 93.1328125 -2.6875 93.1328125 -3.6875 92.1328125 C-3.78803508 89.3077792 -3.82365716 86.50715965 -3.81689453 83.68164062 C-3.81864685 82.79552597 -3.82039917 81.90941132 -3.82220459 80.9964447 C-3.8266244 78.05229768 -3.82368467 75.10821019 -3.8203125 72.1640625 C-3.8209855 70.12764474 -3.8219555 68.09122706 -3.82321167 66.05480957 C-3.82468882 61.78083534 -3.82253355 57.50688197 -3.81787109 53.23291016 C-3.8121738 47.74122711 -3.81545271 42.24959293 -3.82144356 36.75791168 C-3.82504872 32.55104196 -3.82391079 28.34418391 -3.82131577 24.13731384 C-3.82064637 22.11181126 -3.82147535 20.08630764 -3.82379532 18.06080627 C-3.8263211 15.2351702 -3.8224823 12.40961443 -3.81689453 9.58398438 C-3.81891876 8.73823349 -3.82094299 7.8924826 -3.82302856 7.02110291 C-3.7978606 0.18768497 -3.7978606 0.18768497 0 0 Z " fill="#EAEAEA" transform="translate(157.6875,317.8671875)"/>
<path d="M0 0 C1 1 1 1 1.09765625 3.72265625 C1.08605469 4.82480469 1.07445312 5.92695313 1.0625 7.0625 C1.05347656 8.16722656 1.04445313 9.27195312 1.03515625 10.41015625 C1.02355469 11.26480469 1.01195312 12.11945313 1 13 C-1.85111091 13.58195917 -4.68690495 14.10845868 -7.5625 14.5625 C-11.45304599 16.1894556 -12.43533716 17.63802238 -14.18579102 21.39477539 C-15.8621196 26.75852421 -15.64318832 32.36309073 -15.6875 37.9375 C-15.72935613 40.38418099 -15.77472617 42.83080532 -15.82421875 45.27734375 C-15.83541748 46.35234131 -15.84661621 47.42733887 -15.8581543 48.53491211 C-16 51 -16 51 -17 52 C-18.99799572 52.09873816 -20.99957158 52.12971799 -23 52.125 C-24.093125 52.12757813 -25.18625 52.13015625 -26.3125 52.1328125 C-29 52 -29 52 -30 51 C-30.09831146 49.50129952 -30.12798456 47.99801461 -30.12939453 46.49609375 C-30.13254669 45.53840088 -30.13569885 44.58070801 -30.13894653 43.59399414 C-30.1369223 42.55235107 -30.13489807 41.51070801 -30.1328125 40.4375 C-30.13376923 39.37587646 -30.13472595 38.31425293 -30.13571167 37.22045898 C-30.13639364 34.97086528 -30.13453819 32.72126963 -30.13037109 30.47167969 C-30.1250231 27.01492929 -30.13031554 23.55830883 -30.13671875 20.1015625 C-30.13605797 17.92187471 -30.13477682 15.742187 -30.1328125 13.5625 C-30.13483673 12.52085693 -30.13686096 11.47921387 -30.13894653 10.40600586 C-30.13579437 9.44831299 -30.13264221 8.49062012 -30.12939453 7.50390625 C-30.12859894 6.65642822 -30.12780334 5.8089502 -30.12698364 4.93579102 C-30 3 -30 3 -29 2 C-27.31391034 1.92794489 -25.62499341 1.91613932 -23.9375 1.9375 C-23.01839844 1.94652344 -22.09929687 1.95554687 -21.15234375 1.96484375 C-20.44207031 1.97644531 -19.73179687 1.98804688 -19 2 C-18.34 3.32 -17.68 4.64 -17 6 C-16.278125 5.38125 -15.55625 4.7625 -14.8125 4.125 C-9.86188197 0.38453304 -6.20787019 -0.35814636 0 0 Z " fill="#E4E4E4" transform="translate(529,359)"/>
<path d="M0 0 C4.65748253 2.29888561 7.37929348 5.43321861 9.078125 10.33984375 C9.92496994 16.26775834 8.99286298 19.73597681 5.5625 24.640625 C2.40747346 28.25230012 -0.70131047 29.20669126 -5.359375 29.71484375 C-9.50985202 29.27795143 -12.28519627 28.39834115 -15.921875 26.33984375 C-20.07149701 21.09821595 -21.47786019 17.01166603 -20.921875 10.33984375 C-19.22788299 5.45175838 -16.47831288 2.28757271 -11.84375 0 C-7.74260235 -1.40872755 -4.10114765 -1.40872755 0 0 Z " fill="#FCFAFC" transform="translate(370.921875,120.66015625)"/>
<path d="M0 0 C4.53390589 2.56589179 7.18733108 4.97896431 8.8203125 10.08203125 C9.57731396 15.92175677 8.27176255 20.38846643 4.8203125 25.08203125 C1.56446506 28.02465792 -1.81759636 29.31151397 -6.1796875 29.58203125 C-10.54177864 29.31151397 -13.92384006 28.02465792 -17.1796875 25.08203125 C-20.61089123 20.41599904 -22.02352209 15.88339403 -21.1796875 10.08203125 C-19.43798379 5.19701612 -16.76393279 2.03445964 -12.09765625 -0.25390625 C-7.72527023 -1.76776699 -4.18671889 -1.7632239 0 0 Z " fill="#FCFAFC" transform="translate(251.1796875,120.91796875)"/>
<path d="M0 0 C4.65748253 2.29888561 7.37929348 5.43321861 9.078125 10.33984375 C9.91749862 16.2154591 9.02882486 19.76581212 5.62890625 24.640625 C2.24609488 28.34723192 -1.60764387 29.17556486 -6.421875 29.77734375 C-11.60231439 29.12978883 -15.16503844 27.21380275 -18.796875 23.33984375 C-21.172592 19.11634687 -21.32973402 15.15258024 -20.921875 10.33984375 C-19.22431725 5.45169552 -16.48017975 2.28849417 -11.84375 0 C-7.74260235 -1.40872755 -4.10114765 -1.40872755 0 0 Z " fill="#FCFAFC" transform="translate(310.921875,120.66015625)"/>
<path d="M0 0 C-1.6396875 0.61875 -1.6396875 0.61875 -3.3125 1.25 C-6.52894447 2.65638058 -8.44900185 3.71553333 -10 7 C-10.52389712 11.04149208 -10.37281969 13.2958899 -8.45703125 16.9140625 C-5.46693464 20.66950975 -2.36002321 22.62518285 1.75 25 C3.19151239 25.8687614 4.63163488 26.73983346 6.0703125 27.61328125 C6.75383789 28.02529785 7.43736328 28.43731445 8.14160156 28.86181641 C15.33116111 33.26509105 22.82434534 38.8844381 26 47 C25.67 47.99 25.34 48.98 25 50 C24.68289063 49.3709375 24.36578125 48.741875 24.0390625 48.09375 C18.59789135 38.11325927 10.84869321 33.00934417 1.25 27.4375 C-9.82717656 20.94009857 -9.82717656 20.94009857 -12 16 C-12.8927241 11.76632357 -13.03981556 7.95359287 -10.96875 4.0625 C-7.67852742 -0.11046522 -5.06974783 -1.57337002 0 0 Z " fill="#B1B1B1" transform="translate(267,329)"/>
<path d="M0 0 C0 0.66 0 1.32 0 2 C-2.63892176 3.78305524 -4.97178863 4.99059621 -8 6 C-7.67 6.99 -7.34 7.98 -7 9 C-10.66666667 9 -14.33333333 9 -18 9 C-4.89320388 0 -4.89320388 0 0 0 Z " fill="#A286F2" transform="translate(202,6)"/>
<path d="M0 0 C7.50097144 3.82702625 14.02721378 8.82483788 17 17 C16.67 17.99 16.34 18.98 16 20 C15.68289063 19.3709375 15.36578125 18.741875 15.0390625 18.09375 C11.58184882 11.75234148 7.83380213 7.80958029 1.9765625 3.59375 C1.32429688 3.0678125 0.67203125 2.541875 0 2 C0 1.34 0 0.68 0 0 Z " fill="#BDBDBD" transform="translate(276,359)"/>
<path d="M0 0 C0.33 0 0.66 0 1 0 C1.38160272 4.77003402 1.4609004 8.09465992 -0.75 12.4375 C-4.02024291 16.16194332 -4.02024291 16.16194332 -7 17 C-9.25 16.625 -9.25 16.625 -11 16 C-10.071875 15.566875 -9.14375 15.13375 -8.1875 14.6875 C-5.39649192 13.20990749 -3.91745516 12.39681895 -2 10 C-1.21201945 7.50556226 -1.21201945 7.50556226 -0.8125 4.8125 C-0.57466797 3.46091797 -0.57466797 3.46091797 -0.33203125 2.08203125 C-0.22246094 1.39496094 -0.11289062 0.70789063 0 0 Z " fill="#AEAEAE" transform="translate(281,383)"/>
<path d="M0 0 C1.32 0 2.64 0 4 0 C4 0.66 4 1.32 4 2 C4.99 2.33 5.98 2.66 7 3 C4.03 5.475 4.03 5.475 1 8 C0.4375 6.0625 0.4375 6.0625 0 4 C0.33 3.67 0.66 3.34 1 3 C0.34 2.34 -0.32 1.68 -1 1 C-0.67 0.67 -0.34 0.34 0 0 Z " fill="#A082F5" transform="translate(314,290)"/>
<path d="M0 0 C1.98 0 3.96 0 6 0 C3.69905075 2.74343949 2.3914126 3.89823272 -1.125 4.8125 C-4 5 -4 5 -6 4 C-6 3.34 -6 2.68 -6 2 C-4.02 2 -2.04 2 0 2 C0 1.34 0 0.68 0 0 Z " fill="#A184F1" transform="translate(416,242)"/>
<path d="M0 0 C2.475 0.99 2.475 0.99 5 2 C4.67 3.32 4.34 4.64 4 6 C5.32 6.66 6.64 7.32 8 8 C7.01 9.485 7.01 9.485 6 11 C4.99735282 9.35577799 3.99794896 7.70957779 3 6.0625 C2.443125 5.14597656 1.88625 4.22945312 1.3125 3.28515625 C0 1 0 1 0 0 Z " fill="#A78EF1" transform="translate(163,214)"/>
<path d="M0 0 C0.99 0.66 1.98 1.32 3 2 C1.35 3.98 -0.3 5.96 -2 8 C-2.6875 6.25 -2.6875 6.25 -3 4 C-1.5625 1.75 -1.5625 1.75 0 0 Z " fill="#A186F3" transform="translate(436,225)"/>
<path d="M0 0 C0.33 0.66 0.66 1.32 1 2 C1.66 2.33 2.32 2.66 3 3 C1.68 5.31 0.36 7.62 -1 10 C-2.46726798 6.18510326 -1.43336419 3.70988378 0 0 Z " fill="#A98DF3" transform="translate(161,44)"/>
<path d="M0 0 C1.65 0.33 3.3 0.66 5 1 C5 1.66 5 2.32 5 3 C2.69 3.33 0.38 3.66 -2 4 C-1.34 2.68 -0.68 1.36 0 0 Z " fill="#9D7FF3" transform="translate(173,25)"/>
</svg>
