<svg version="1.1" id="Layer_1" xmlns="http://www.w3.org/2000/svg" xmlns:xlink="http://www.w3.org/1999/xlink" x="0px" y="0px"
	 width="100%" viewBox="0 0 610 444" enable-background="new 0 0 610 444" xml:space="preserve">
<path fill="#FFFFFF" opacity="1.000000" stroke="none" 
	d="
M377.000000,0.999999 
	C446.354218,1.000000 515.708435,1.000000 585.531494,1.468657 
	C586.000366,145.857452 586.000366,289.777588 586.000366,434.000183 
	C584.712463,434.000183 583.912842,434.000183 583.113220,434.000183 
	C496.992004,434.000275 410.870819,434.004822 324.749634,433.959686 
	C323.395020,433.958984 322.040710,433.347015 321.138550,432.933960 
	C321.590851,425.119202 321.590851,417.390808 321.590851,409.662445 
	C320.995148,412.041168 321.085510,414.433258 320.976837,416.816284 
	C320.729645,422.235352 320.384674,427.649963 319.620300,433.121582 
	C316.080322,433.139740 312.999481,433.102753 309.791260,432.663635 
	C309.444214,430.475220 309.039703,428.689514 309.033905,426.902496 
	C308.983551,411.439301 308.965515,395.975769 309.025574,380.512665 
	C309.047455,374.874756 309.306000,369.237823 309.852295,363.457611 
	C313.320892,363.436829 316.393768,363.558838 319.678802,363.885681 
	C320.151459,364.038544 320.411957,363.986542 320.672424,363.934540 
	C320.476257,363.597504 320.280090,363.260468 319.881470,362.543640 
	C316.092957,362.412292 312.506958,362.660706 308.542816,363.133728 
	C308.107635,385.699738 308.035461,408.041138 308.049438,430.382538 
	C308.049988,431.264221 308.872192,432.145386 309.061890,433.404846 
	C307.488281,433.855408 306.164307,433.991241 304.840332,433.991364 
	C214.121719,434.001343 123.403107,434.000427 32.684490,434.000427 
	C31.570730,434.000427 30.456970,434.000427 29.303581,434.000427 
	C29.156137,433.107117 29.012671,432.643158 29.012506,432.179108 
	C29.000921,399.387238 28.992281,366.595398 29.040014,333.803589 
	C29.041470,332.803497 29.640053,331.804230 30.132828,331.218506 
	C38.586376,331.632416 46.867340,331.632416 55.148304,331.632416 
	C55.151283,331.374817 55.154266,331.117218 55.157246,330.859619 
	C46.749737,330.859619 38.342224,330.859619 29.815813,330.462463 
	C29.464457,326.598083 29.030041,323.130981 29.028873,319.663727 
	C28.993107,213.442490 28.999849,107.221245 29.000000,1.000000 
	C97.020897,1.000000 165.041794,1.000000 233.319244,1.329167 
	C231.165863,2.095125 228.762512,2.870129 226.345001,2.917114 
	C197.836792,3.471173 177.406113,17.079424 164.496292,41.957851 
	C157.195206,56.027740 157.088943,71.728340 156.403351,87.612289 
	C156.219147,117.974602 156.170593,147.904678 156.170044,177.834747 
	C156.170013,178.946075 156.637878,180.057388 156.850372,181.619171 
	C155.884445,223.527267 191.492920,256.222382 229.262604,255.305771 
	C239.351318,255.899414 249.092621,256.264618 259.231567,256.729065 
	C266.099274,257.452667 270.770905,260.950409 274.110809,266.266632 
	C278.970306,274.001678 283.773865,281.777710 288.373077,289.669281 
	C297.047607,304.553497 314.138519,304.944397 323.176880,290.321350 
	C327.979736,282.550842 332.607056,274.671875 337.405060,266.898346 
	C340.998932,261.075745 346.052582,257.342133 353.453979,256.685638 
	C359.338257,256.517059 364.807892,256.314484 370.271393,256.003448 
	C374.539490,255.760452 378.799866,255.382812 383.514526,255.093079 
	C423.402435,255.320709 455.277313,221.194824 455.130615,184.846359 
	C455.423523,184.438583 455.351196,184.178986 455.088531,183.671539 
	C455.118805,182.952484 455.101288,182.540100 455.292664,181.822220 
	C455.527557,180.042389 455.553528,178.568069 455.658630,176.735626 
	C455.708923,175.891006 455.680115,175.404510 455.755188,174.466797 
	C455.868134,146.215012 455.887024,118.414444 455.855225,90.613922 
	C455.853760,89.330521 455.398071,88.047638 455.203857,86.313187 
	C454.833771,79.068298 454.569122,72.260948 453.967743,65.483467 
	C450.764679,29.384649 420.265686,2.093807 384.310394,2.878141 
	C381.888397,2.930975 379.437469,1.656923 377.000000,0.999999 
M277.857361,375.506317 
	C277.566650,375.341614 277.275970,375.176880 276.788940,374.483856 
	C276.308533,374.212982 275.828094,373.942139 275.085663,373.262024 
	C274.864075,373.017212 274.602905,372.826599 274.034607,372.102844 
	C273.116669,371.619904 272.198761,371.136963 271.025665,370.080872 
	C270.115356,369.613373 269.205078,369.145874 267.921631,368.238983 
	C267.400024,368.008423 266.878418,367.777863 266.029327,367.015686 
	C265.255005,366.669556 264.480652,366.323425 263.706329,365.977264 
	C263.575653,366.235382 263.444977,366.493469 263.314270,366.751556 
	C264.165527,367.220306 265.016785,367.689056 266.207336,368.630859 
	C266.751160,368.812164 267.295013,368.993469 268.149323,369.727570 
	C269.064819,370.192963 269.980347,370.658325 271.211273,371.662201 
	C272.094910,372.158112 272.978546,372.654022 274.081696,373.582184 
	C274.281311,373.855560 274.545166,374.033936 275.239105,374.623688 
	C275.831329,374.743134 276.423523,374.862579 277.086456,375.523590 
	C277.394196,375.679626 277.701965,375.835663 278.093170,376.527466 
	C278.400513,376.680511 278.707855,376.833557 278.948639,377.603607 
	C279.277069,378.094025 279.605530,378.584442 280.100555,379.504395 
	C280.335663,379.473114 280.570740,379.441864 280.805847,379.410583 
	C280.600067,379.211700 280.394318,379.012787 280.128418,378.228699 
	C279.749023,377.823181 279.369629,377.417633 278.852661,376.514862 
	C278.566376,376.345734 278.280060,376.176605 277.857361,375.506317 
M196.641449,319.166168 
	C193.212250,319.166168 189.783066,319.166168 186.353867,319.166168 
	C186.351105,319.331116 186.348343,319.496063 186.345581,319.661011 
	C189.744339,319.970459 193.143112,320.279877 196.769501,321.424896 
	C196.905792,328.594666 197.042099,335.764404 197.023056,343.868195 
	C197.023056,358.634033 197.023056,373.399872 197.023056,388.165680 
	C197.288895,388.163391 197.554718,388.161102 197.820557,388.158813 
	C197.820557,373.083984 197.820557,358.009155 197.949905,342.013580 
	C197.965179,338.908386 198.103027,335.797791 197.965988,332.699341 
	C197.777267,328.432343 197.380798,324.174530 196.641449,319.166168 
M513.832764,410.640717 
	C513.832764,402.319641 513.832764,393.998596 513.832764,385.677521 
	C513.405212,385.678375 512.977661,385.679260 512.550110,385.680115 
	C512.550110,393.921082 512.550110,402.162048 511.745850,410.691650 
	C508.316589,410.597931 504.887299,410.504242 501.230438,409.574890 
	C501.304016,394.248596 501.377594,378.922302 502.247772,363.310669 
	C504.939209,363.122803 507.630676,362.934937 510.322113,362.747070 
	C510.280426,362.376709 510.238739,362.006348 510.197052,361.635956 
	C507.106537,362.061981 504.016022,362.488007 500.167236,363.359344 
	C500.106628,378.591675 500.033875,393.823975 500.025635,409.056335 
	C500.025269,409.733124 500.612915,410.410248 501.358002,411.833557 
	C505.263489,411.584381 509.168976,411.335205 513.832764,410.640717 
M387.822479,410.630646 
	C387.822479,402.305023 387.822479,393.979401 387.822479,385.653778 
	C387.400024,385.654053 386.977570,385.654327 386.555115,385.654602 
	C386.555115,393.903778 386.555115,402.152954 385.750793,410.688263 
	C382.321228,410.595032 378.891663,410.501770 375.232666,409.573669 
	C375.171234,380.561127 375.107056,351.548584 375.066132,322.536011 
	C375.065247,321.889709 375.329590,321.242981 376.274200,320.305634 
	C379.698181,320.400574 383.122192,320.495514 386.773224,321.425995 
	C386.773224,336.059113 386.773224,350.692261 386.773224,365.325378 
	C387.952972,350.537964 387.959106,335.756012 387.915924,320.974243 
	C387.914886,320.622162 387.361786,320.271759 386.642578,319.169647 
	C382.726807,319.407257 378.811035,319.644867 374.144135,320.344116 
	C374.090607,349.912567 374.030762,379.480988 374.023010,409.049438 
	C374.022827,409.729614 374.610474,410.409882 375.357666,411.835205 
	C379.260895,411.582855 383.164124,411.330475 387.822479,410.630646 
M424.823425,410.632812 
	C424.823425,400.653290 424.823425,390.673767 424.823425,380.694214 
	C424.397888,380.694366 423.972382,380.694519 423.546844,380.694672 
	C423.546844,390.595520 423.546844,400.496338 422.746552,410.688019 
	C419.322540,410.593323 415.898499,410.498627 412.239380,409.571259 
	C412.239380,399.788452 412.239380,390.005615 412.239380,380.222809 
	C411.825104,380.222046 411.410858,380.221252 410.996582,380.220490 
	C410.996582,388.998383 410.953217,397.776672 411.037933,406.553741 
	C411.052582,408.071320 411.610077,409.583679 412.356689,411.840027 
	C416.259827,411.585754 420.162964,411.331451 424.823425,410.632812 
M57.088547,411.447845 
	C57.223377,411.473602 57.358204,411.499359 57.493038,411.525116 
	C57.412228,411.273315 57.331417,411.021484 57.154400,409.865906 
	C57.154400,386.289337 57.154400,362.712738 57.154400,339.136169 
	C56.012085,362.576416 56.006142,386.011688 56.046814,409.446899 
	C56.047817,410.025208 56.565685,410.602631 57.088547,411.447845 
M69.053551,332.959930 
	C69.053551,358.831696 69.053551,384.703461 69.053551,410.575226 
	C69.347679,410.575592 69.641815,410.575958 69.935944,410.576324 
	C69.935944,384.380188 69.935944,358.184052 70.883743,331.993378 
	C79.097183,331.993378 87.310631,331.993378 95.524071,331.993378 
	C89.115967,331.000000 82.706696,330.907898 76.302528,331.048279 
	C73.952454,331.099762 71.614441,331.701599 69.053551,332.959930 
M168.990341,325.213745 
	C168.007858,323.487091 167.382080,320.770020 165.961929,320.258514 
	C163.647461,319.424927 160.773697,319.772369 158.222107,320.171844 
	C157.336227,320.310486 156.706223,322.083588 155.224564,323.528564 
	C155.143997,351.997406 155.052963,380.466248 155.034821,408.935120 
	C155.034286,409.766388 155.803177,410.598114 156.577301,411.703705 
	C156.946411,411.513763 157.315506,411.323822 157.684601,411.133850 
	C157.261917,410.756470 156.839249,410.379089 156.117722,409.107788 
	C156.133636,381.071259 156.149551,353.034729 156.921997,324.888794 
	C161.166183,322.425415 164.383560,325.264862 167.961395,327.925293 
	C167.961395,355.418976 167.961395,382.912659 167.961395,410.406342 
	C168.299530,410.405823 168.637650,410.405304 168.975784,410.404785 
	C168.975784,382.293396 168.975784,354.181976 168.990341,325.213745 
M35.280277,320.015381 
	C47.949696,320.015381 60.619114,320.015381 73.288536,320.015381 
	C59.825218,318.962646 46.367138,318.929657 32.910583,319.057495 
	C32.218658,319.064056 31.539818,320.448395 30.854883,321.191254 
	C31.051439,321.322266 31.247993,321.453308 31.444550,321.584351 
	C32.454578,321.071259 33.464607,320.558197 35.280277,320.015381 
M137.001831,396.447357 
	C137.001831,399.566589 137.001831,402.685822 137.001831,405.805084 
	C137.223572,405.790588 137.445312,405.776123 137.667053,405.761627 
	C137.667053,392.240723 137.667053,378.719818 137.667053,365.198883 
	C137.445312,365.199463 137.223572,365.200012 137.001831,365.200592 
	C137.001831,375.288086 137.001831,385.375610 137.001831,396.447357 
M575.444092,391.997833 
	C578.452942,391.997833 581.461853,391.997833 584.470703,391.997833 
	C584.464722,391.762939 584.458740,391.528046 584.452759,391.293152 
	C572.853577,391.293152 561.254333,391.293152 549.655151,391.293152 
	C549.654053,391.528046 549.652954,391.762939 549.651855,391.997833 
	C557.921265,391.997833 566.190674,391.997833 575.444092,391.997833 
M464.511414,392.003235 
	C471.512024,392.003235 478.512665,392.003235 485.513275,392.003235 
	C485.506927,391.784851 485.500580,391.566467 485.494232,391.348083 
	C474.050842,391.348083 462.607452,391.348083 451.164062,391.348083 
	C451.164825,391.566467 451.165588,391.784851 451.166351,392.003235 
	C455.283722,392.003235 459.401123,392.003235 464.511414,392.003235 
M137.493683,410.882233 
	C137.491364,410.478210 137.489029,410.074158 137.486694,409.670135 
	C137.131104,409.873352 136.775513,410.076569 136.419907,410.279755 
	C136.654266,410.601257 136.888611,410.922729 137.493683,410.882233 
z"/>
<path fill="#946EFE" opacity="1.000000" stroke="none" 
	d="
M455.651367,174.917999 
	C455.680115,175.404510 455.708923,175.891006 455.465698,177.035187 
	C455.157043,179.171158 455.120422,180.649445 455.083801,182.127731 
	C455.101288,182.540100 455.118805,182.952484 455.065277,183.910233 
	C454.994232,184.455612 455.003540,184.935669 455.003540,184.935669 
	C455.277313,221.194824 423.402435,255.320709 383.042145,255.054108 
	C373.819977,255.000595 365.519714,254.941483 357.223511,255.098068 
	C355.818939,255.124588 354.431885,256.079102 353.036743,256.604889 
	C346.052582,257.342133 340.998932,261.075745 337.405060,266.898346 
	C332.607056,274.671875 327.979736,282.550842 323.176880,290.321350 
	C314.138519,304.944397 297.047607,304.553497 288.373077,289.669281 
	C283.773865,281.777710 278.970306,274.001678 274.110809,266.266632 
	C270.770905,260.950409 266.099274,257.452667 258.967529,256.498047 
	C256.734222,255.787506 255.166183,255.096954 253.590424,255.078857 
	C245.366440,254.984253 237.140472,255.060532 228.915207,255.077347 
	C191.492920,256.222382 155.884445,223.527267 156.894745,181.136749 
	C156.986847,150.495819 157.003052,120.787788 156.988052,91.079765 
	C156.987396,89.779785 156.700623,88.479958 156.547119,87.180054 
	C157.088943,71.728340 157.195206,56.027740 164.496292,41.957851 
	C177.406113,17.079424 197.836792,3.471173 226.345001,2.917114 
	C228.762512,2.870129 231.165863,2.095125 233.787903,1.329167 
	C281.354218,1.000000 328.708466,1.000000 376.531342,0.999999 
	C379.437469,1.656923 381.888397,2.930975 384.310394,2.878141 
	C420.265686,2.093807 450.764679,29.384649 453.967743,65.483467 
	C454.569122,72.260948 454.833771,79.068298 455.147858,86.801346 
	C455.027527,115.519226 455.004425,143.297623 455.026520,171.076004 
	C455.027527,172.356827 455.433807,173.637329 455.651367,174.917999 
M251.937439,122.207466 
	C243.577835,119.561722 236.479126,122.079681 232.763138,129.008728 
	C229.421478,135.239792 230.948685,143.038620 236.376236,147.459366 
	C243.210983,153.026276 252.863403,151.927734 257.957031,145.003235 
	C263.589233,137.346603 261.411774,128.177094 251.937439,122.207466 
M311.182220,121.974190 
	C304.637024,119.660858 299.046875,121.337204 294.561462,126.388481 
	C290.375702,131.102295 289.815613,137.608231 292.846619,143.073822 
	C295.968048,148.702560 300.891876,151.294418 307.246674,150.942245 
	C313.695465,150.584869 319.371826,145.413620 320.773956,138.915085 
	C322.182587,132.386459 318.980835,126.338104 311.182220,121.974190 
M354.625854,145.788467 
	C361.152405,151.730804 367.610077,152.679245 374.008759,148.635178 
	C379.546967,145.134964 382.232178,138.384674 380.483002,132.239334 
	C378.720795,126.048164 374.558594,122.220619 368.316071,121.197998 
	C362.259125,120.205780 357.139526,122.426254 353.679749,127.591599 
	C349.726501,133.493576 350.113800,139.440689 354.625854,145.788467 
z"/>
<path fill="#000000" opacity="1.000000" stroke="none" 
	d="
M309.918671,433.065735 
	C312.999481,433.102753 316.080322,433.139740 319.781372,433.233704 
	C320.401642,433.290680 320.686279,433.020325 320.686279,433.020325 
	C322.040710,433.347015 323.395020,433.958984 324.749634,433.959686 
	C410.870819,434.004822 496.992004,434.000275 583.113220,434.000183 
	C583.912842,434.000183 584.712463,434.000183 586.000366,434.000183 
	C586.000366,289.777588 586.000366,145.857452 586.000183,1.468657 
	C594.330994,1.000000 602.661926,1.000000 610.994690,1.000000 
	C610.996460,148.955856 610.996460,296.911713 610.996460,444.933777 
	C407.768250,444.933777 204.536438,444.933777 1.152326,444.933777 
	C1.152326,297.000122 1.152326,149.000076 1.152326,1.000000 
	C10.067457,1.000000 19.065069,1.000000 28.531342,1.000000 
	C28.999849,107.221245 28.993107,213.442490 29.028873,319.663727 
	C29.030041,323.130981 29.464457,326.598083 29.862377,330.470459 
	C30.027842,330.875671 29.960243,330.804596 29.960243,330.804596 
	C29.640053,331.804230 29.041470,332.803497 29.040014,333.803589 
	C28.992281,366.595398 29.000921,399.387238 29.012506,432.179108 
	C29.012671,432.643158 29.156137,433.107117 29.303581,434.000427 
	C30.456970,434.000427 31.570730,434.000427 32.684490,434.000427 
	C123.403107,434.000427 214.121719,434.001343 304.840332,433.991364 
	C306.164307,433.991241 307.488281,433.855408 309.205719,433.538757 
	C309.599182,433.294617 309.918671,433.065735 309.918671,433.065735 
z"/>
<path fill="#9C85D9" opacity="1.000000" stroke="none" 
	d="
M156.403351,87.612289 
	C156.700623,88.479958 156.987396,89.779785 156.988052,91.079765 
	C157.003052,120.787788 156.986847,150.495819 156.932083,180.686279 
	C156.637878,180.057388 156.170013,178.946075 156.170044,177.834747 
	C156.170593,147.904678 156.219147,117.974602 156.403351,87.612289 
z"/>
<path fill="#5A5A5A" opacity="1.000000" stroke="none" 
	d="
M375.470184,320.596466 
	C375.329590,321.242981 375.065247,321.889709 375.066132,322.536011 
	C375.107056,351.548584 375.171234,380.561127 375.212494,410.161224 
	C375.192322,410.748779 374.923950,411.090118 374.923950,411.090118 
	C374.610474,410.409882 374.022827,409.729614 374.023010,409.049438 
	C374.030762,379.480988 374.090607,349.912567 374.663330,320.291931 
	C375.182495,320.239716 375.470184,320.596466 375.470184,320.596466 
z"/>
<path fill="#9D86DA" opacity="1.000000" stroke="none" 
	d="
M455.755188,174.466797 
	C455.433807,173.637329 455.027527,172.356827 455.026520,171.076004 
	C455.004425,143.297623 455.027527,115.519226 455.097931,87.252670 
	C455.398071,88.047638 455.853760,89.330521 455.855225,90.613922 
	C455.887024,118.414444 455.868134,146.215012 455.755188,174.466797 
z"/>
<path fill="#898989" opacity="1.000000" stroke="none" 
	d="
M156.213318,411.429626 
	C155.803177,410.598114 155.034286,409.766388 155.034821,408.935120 
	C155.052963,380.466248 155.143997,351.997406 155.612183,323.635986 
	C156.055038,324.161652 156.110245,324.579926 156.165451,324.998199 
	C156.149551,353.034729 156.133636,381.071259 156.220718,409.912354 
	C156.286911,410.954498 156.250107,411.192078 156.213318,411.429626 
z"/>
<path fill="#898989" opacity="1.000000" stroke="none" 
	d="
M168.975784,326.070587 
	C168.975784,354.181976 168.975784,382.293396 168.975784,410.404785 
	C168.637650,410.405304 168.299530,410.405823 167.961395,410.406342 
	C167.961395,382.912659 167.961395,355.418976 167.996002,327.209351 
	C168.345657,326.352448 168.660721,326.211517 168.975784,326.070587 
z"/>
<path fill="#898989" opacity="1.000000" stroke="none" 
	d="
M69.935944,331.987915 
	C69.935944,358.184052 69.935944,384.380188 69.935944,410.576324 
	C69.641815,410.575958 69.347679,410.575592 69.053551,410.575226 
	C69.053551,384.703461 69.053551,358.831696 69.329346,332.500549 
	C69.605133,332.041168 69.935944,331.987915 69.935944,331.987915 
z"/>
<path fill="#D8D8D8" opacity="1.000000" stroke="none" 
	d="
M56.842499,411.180450 
	C56.565685,410.602631 56.047817,410.025208 56.046814,409.446899 
	C56.006142,386.011688 56.012085,362.576416 57.154400,339.136169 
	C57.154400,362.712738 57.154400,386.289337 57.098370,410.418396 
	C57.042339,410.970886 56.842503,411.180450 56.842499,411.180450 
z"/>
<path fill="#5B5B5B" opacity="1.000000" stroke="none" 
	d="
M309.791260,432.663635 
	C309.918671,433.065735 309.599182,433.294617 309.455383,433.160706 
	C308.872192,432.145386 308.049988,431.264221 308.049438,430.382538 
	C308.035461,408.041138 308.107635,385.699738 308.676605,363.306641 
	C309.188507,363.254944 309.456573,363.600433 309.456573,363.600433 
	C309.306000,369.237823 309.047455,374.874756 309.025574,380.512665 
	C308.965515,395.975769 308.983551,411.439301 309.033905,426.902496 
	C309.039703,428.689514 309.444214,430.475220 309.791260,432.663635 
z"/>
<path fill="#FEFEFE" opacity="1.000000" stroke="none" 
	d="
M168.983063,325.642151 
	C168.660721,326.211517 168.345657,326.352448 167.922882,326.745728 
	C164.383560,325.264862 161.166183,322.425415 156.543732,324.943481 
	C156.110245,324.579926 156.055038,324.161652 155.979584,323.426788 
	C156.706223,322.083588 157.336227,320.310486 158.222107,320.171844 
	C160.773697,319.772369 163.647461,319.424927 165.961929,320.258514 
	C167.382080,320.770020 168.007858,323.487091 168.983063,325.642151 
z"/>
<path fill="#5A5A5A" opacity="1.000000" stroke="none" 
	d="
M500.926697,411.087219 
	C500.612915,410.410248 500.025269,409.733124 500.025635,409.056335 
	C500.033875,393.823975 500.106628,378.591675 500.677734,363.307220 
	C501.188263,363.255096 501.451172,363.596008 501.451172,363.596008 
	C501.377594,378.922302 501.304016,394.248596 501.211060,410.161621 
	C501.191711,410.748383 500.926697,411.087219 500.926697,411.087219 
z"/>
<path fill="#5C5C5C" opacity="1.000000" stroke="none" 
	d="
M34.877457,320.030243 
	C33.464607,320.558197 32.454578,321.071259 31.444550,321.584351 
	C31.247993,321.453308 31.051439,321.322266 30.854883,321.191254 
	C31.539818,320.448395 32.218658,319.064056 32.910583,319.057495 
	C46.367138,318.929657 59.825218,318.962646 73.288536,320.015381 
	C60.619114,320.015381 47.949696,320.015381 34.877457,320.030243 
z"/>
<path fill="#5A5A5A" opacity="1.000000" stroke="none" 
	d="
M387.066193,319.920593 
	C387.361786,320.271759 387.914886,320.622162 387.915924,320.974243 
	C387.959106,335.756012 387.952972,350.537964 386.773224,365.325378 
	C386.773224,350.692261 386.773224,336.059113 386.790436,320.840485 
	C386.807648,320.254974 387.066193,319.920593 387.066193,319.920593 
z"/>
<path fill="#898989" opacity="1.000000" stroke="none" 
	d="
M197.820557,342.934326 
	C197.820557,358.009155 197.820557,373.083984 197.820557,388.158813 
	C197.554718,388.161102 197.288895,388.163391 197.023056,388.165680 
	C197.023056,373.399872 197.023056,358.634033 197.261261,343.402832 
	C197.499481,342.937469 197.820557,342.934326 197.820557,342.934326 
z"/>
<path fill="#F1F1F1" opacity="1.000000" stroke="none" 
	d="
M137.001831,395.955261 
	C137.001831,385.375610 137.001831,375.288086 137.001831,365.200592 
	C137.223572,365.200012 137.445312,365.199463 137.667053,365.198883 
	C137.667053,378.719818 137.667053,392.240723 137.667053,405.761627 
	C137.445312,405.776123 137.223572,405.790588 137.001831,405.805084 
	C137.001831,402.685822 137.001831,399.566589 137.001831,395.955261 
z"/>
<path fill="#5A5A5A" opacity="1.000000" stroke="none" 
	d="
M574.952087,391.997833 
	C566.190674,391.997833 557.921265,391.997833 549.651855,391.997833 
	C549.652954,391.762939 549.654053,391.528046 549.655151,391.293152 
	C561.254333,391.293152 572.853577,391.293152 584.452759,391.293152 
	C584.458740,391.528046 584.464722,391.762939 584.470703,391.997833 
	C581.461853,391.997833 578.452942,391.997833 574.952087,391.997833 
z"/>
<path fill="#5C5C5C" opacity="1.000000" stroke="none" 
	d="
M464.014954,392.003235 
	C459.401123,392.003235 455.283722,392.003235 451.166351,392.003235 
	C451.165588,391.784851 451.164825,391.566467 451.164062,391.348083 
	C462.607452,391.348083 474.050842,391.348083 485.494232,391.348083 
	C485.500580,391.566467 485.506927,391.784851 485.513275,392.003235 
	C478.512665,392.003235 471.512024,392.003235 464.014954,392.003235 
z"/>
<path fill="#A38FD5" opacity="1.000000" stroke="none" 
	d="
M353.453979,256.685638 
	C354.431885,256.079102 355.818939,255.124588 357.223511,255.098068 
	C365.519714,254.941483 373.819977,255.000595 382.591309,255.026062 
	C378.799866,255.382812 374.539490,255.760452 370.271393,256.003448 
	C364.807892,256.314484 359.338257,256.517059 353.453979,256.685638 
z"/>
<path fill="#A492D0" opacity="1.000000" stroke="none" 
	d="
M229.262604,255.305771 
	C237.140472,255.060532 245.366440,254.984253 253.590424,255.078857 
	C255.166183,255.096954 256.734222,255.787506 258.569885,256.398834 
	C249.092621,256.264618 239.351318,255.899414 229.262604,255.305771 
z"/>
<path fill="#5C5C5C" opacity="1.000000" stroke="none" 
	d="
M411.916809,411.098450 
	C411.610077,409.583679 411.052582,408.071320 411.037933,406.553741 
	C410.953217,397.776672 410.996582,388.998383 410.996582,380.220490 
	C411.410858,380.221252 411.825104,380.222046 412.239380,380.222809 
	C412.239380,390.005615 412.239380,399.788452 412.216461,410.161011 
	C412.193542,410.750793 411.916809,411.098450 411.916809,411.098450 
z"/>
<path fill="#5C5C5C" opacity="1.000000" stroke="none" 
	d="
M423.546844,410.397186 
	C423.546844,400.496338 423.546844,390.595520 423.546844,380.694672 
	C423.972382,380.694519 424.397888,380.694366 424.823425,380.694214 
	C424.823425,390.673767 424.823425,400.653290 424.315247,410.684784 
	C423.807037,410.736755 423.546844,410.397186 423.546844,410.397186 
z"/>
<path fill="#9B9B9B" opacity="1.000000" stroke="none" 
	d="
M70.409843,331.990662 
	C69.935944,331.987915 69.605133,332.041168 69.438034,332.046814 
	C71.614441,331.701599 73.952454,331.099762 76.302528,331.048279 
	C82.706696,330.907898 89.115967,331.000000 95.524071,331.993378 
	C87.310631,331.993378 79.097183,331.993378 70.409843,331.990662 
z"/>
<path fill="#A4A4A4" opacity="1.000000" stroke="none" 
	d="
M29.981277,330.867645 
	C38.342224,330.859619 46.749737,330.859619 55.157246,330.859619 
	C55.154266,331.117218 55.151283,331.374817 55.148304,331.632416 
	C46.867340,331.632416 38.586376,331.632416 30.132828,331.218506 
	C29.960243,330.804596 30.027842,330.875671 29.981277,330.867645 
z"/>
<path fill="#5A5A5A" opacity="1.000000" stroke="none" 
	d="
M386.555115,410.402130 
	C386.555115,402.152954 386.555115,393.903778 386.555115,385.654602 
	C386.977570,385.654327 387.400024,385.654053 387.822479,385.653778 
	C387.822479,393.979401 387.822479,402.305023 387.316772,410.685425 
	C386.811066,410.740204 386.555115,410.402130 386.555115,410.402130 
z"/>
<path fill="#5A5A5A" opacity="1.000000" stroke="none" 
	d="
M512.550110,410.403015 
	C512.550110,402.162048 512.550110,393.921082 512.550110,385.680115 
	C512.977661,385.679260 513.405212,385.678375 513.832764,385.677521 
	C513.832764,393.998596 513.832764,402.319641 513.322510,410.692627 
	C512.812256,410.744507 512.550110,410.403015 512.550110,410.403015 
z"/>
<path fill="#5B5B5B" opacity="1.000000" stroke="none" 
	d="
M321.138550,432.933960 
	C320.686279,433.020325 320.401642,433.290680 320.240540,433.178528 
	C320.384674,427.649963 320.729645,422.235352 320.976837,416.816284 
	C321.085510,414.433258 320.995148,412.041168 321.590851,409.662445 
	C321.590851,417.390808 321.590851,425.119202 321.138550,432.933960 
z"/>
<path fill="#5A5A5A" opacity="1.000000" stroke="none" 
	d="
M197.885223,342.473938 
	C197.820557,342.934326 197.499481,342.937469 197.338943,342.935822 
	C197.042099,335.764404 196.905792,328.594666 196.788864,320.838196 
	C196.808228,320.251526 197.073334,319.912781 197.073334,319.912781 
	C197.380798,324.174530 197.777267,328.432343 197.965988,332.699341 
	C198.103027,335.797791 197.965179,338.908386 197.885223,342.473938 
z"/>
<path fill="#5A5A5A" opacity="1.000000" stroke="none" 
	d="
M501.324890,410.579468 
	C504.887299,410.504242 508.316589,410.597931 512.147949,410.547333 
	C512.550110,410.403015 512.812256,410.744507 512.943359,410.915283 
	C509.168976,411.335205 505.263489,411.584381 501.142334,411.460388 
	C500.926697,411.087219 501.191711,410.748383 501.324890,410.579468 
z"/>
<path fill="#5A5A5A" opacity="1.000000" stroke="none" 
	d="
M375.327209,410.578674 
	C378.891663,410.501770 382.321228,410.595032 386.152954,410.545197 
	C386.555115,410.402130 386.811066,410.740204 386.939209,410.909180 
	C383.164124,411.330475 379.260895,411.582855 375.140808,411.462646 
	C374.923950,411.090118 375.192322,410.748779 375.327209,410.578674 
z"/>
<path fill="#5C5C5C" opacity="1.000000" stroke="none" 
	d="
M423.936584,410.906982 
	C420.162964,411.331451 416.259827,411.585754 412.136749,411.469238 
	C411.916809,411.098450 412.193542,410.750793 412.334015,410.577332 
	C415.898499,410.498627 419.322540,410.593323 423.146698,410.542603 
	C423.546844,410.397186 423.807037,410.736755 423.936584,410.906982 
z"/>
<path fill="#5A5A5A" opacity="1.000000" stroke="none" 
	d="
M375.038879,320.061096 
	C378.811035,319.644867 382.726807,319.407257 386.854370,319.545105 
	C387.066193,319.920593 386.807648,320.254974 386.676910,320.422729 
	C383.122192,320.495514 379.698181,320.400574 375.872192,320.451050 
	C375.470184,320.596466 375.182495,320.239716 375.038879,320.061096 
z"/>
<path fill="#5A5A5A" opacity="1.000000" stroke="none" 
	d="
M196.675049,320.420410 
	C193.143112,320.279877 189.744339,319.970459 186.345581,319.661011 
	C186.348343,319.496063 186.351105,319.331116 186.353867,319.166168 
	C189.783066,319.166168 193.212250,319.166168 196.857391,319.539490 
	C197.073334,319.912781 196.808228,320.251526 196.675049,320.420410 
z"/>
<path fill="#5B5B5B" opacity="1.000000" stroke="none" 
	d="
M319.466614,363.680847 
	C316.393768,363.558838 313.320892,363.436829 309.852295,363.457611 
	C309.456573,363.600433 309.188507,363.254944 309.054718,363.082031 
	C312.506958,362.660706 316.092957,362.412292 319.715027,362.723145 
	C319.751038,363.282410 319.466614,363.680878 319.466614,363.680847 
z"/>
<path fill="#5A5A5A" opacity="1.000000" stroke="none" 
	d="
M501.056885,363.084534 
	C504.016022,362.488007 507.106537,362.061981 510.197052,361.635956 
	C510.238739,362.006348 510.280426,362.376709 510.322113,362.747070 
	C507.630676,362.934937 504.939209,363.122803 501.849487,363.453339 
	C501.451172,363.596008 501.188263,363.255096 501.056885,363.084534 
z"/>
<path fill="#9D86DA" opacity="1.000000" stroke="none" 
	d="
M455.292694,181.822220 
	C455.120422,180.649445 455.157043,179.171158 455.386597,177.393311 
	C455.553528,178.568069 455.527557,180.042389 455.292694,181.822220 
z"/>
<path fill="#B4B4B4" opacity="1.000000" stroke="none" 
	d="
M270.895844,371.123718 
	C269.980347,370.658325 269.064819,370.192963 268.107880,369.326904 
	C268.066437,368.926239 268.294769,368.678375 268.294769,368.678375 
	C269.205078,369.145874 270.115356,369.613373 271.057281,370.488159 
	C271.088898,370.895416 270.895844,371.123718 270.895844,371.123718 
z"/>
<path fill="#B4B4B4" opacity="1.000000" stroke="none" 
	d="
M265.868042,368.157806 
	C265.016785,367.689056 264.165527,367.220306 263.314270,366.751556 
	C263.444977,366.493469 263.575653,366.235382 263.706329,365.977264 
	C264.480652,366.323425 265.255005,366.669556 266.071228,367.437225 
	C266.113159,367.858765 265.868042,368.157806 265.868042,368.157806 
z"/>
<path fill="#B4B4B4" opacity="1.000000" stroke="none" 
	d="
M273.862152,373.149963 
	C272.978546,372.654022 272.094910,372.158112 271.053558,371.392944 
	C270.895844,371.123718 271.088898,370.895416 271.184875,370.774719 
	C272.198761,371.136963 273.116669,371.619904 274.058258,372.511353 
	C274.081909,372.919830 273.862152,373.149963 273.862152,373.149963 
z"/>
<path fill="#F1F1F1" opacity="1.000000" stroke="none" 
	d="
M137.308319,411.063232 
	C136.888611,410.922729 136.654266,410.601257 136.419922,410.279755 
	C136.775513,410.076569 137.131104,409.873352 137.486694,409.670135 
	C137.489029,410.074158 137.491364,410.478210 137.308319,411.063232 
z"/>
<path fill="#FEFEFE" opacity="1.000000" stroke="none" 
	d="
M156.395309,411.566650 
	C156.250107,411.192078 156.286911,410.954498 156.370148,410.359314 
	C156.839249,410.379089 157.261917,410.756470 157.684601,411.133850 
	C157.315506,411.323822 156.946411,411.513763 156.395309,411.566650 
z"/>
<path fill="#B4B4B4" opacity="1.000000" stroke="none" 
	d="
M277.015747,374.982056 
	C276.423523,374.862579 275.831329,374.743134 275.174744,374.258423 
	C275.110352,373.893158 275.347687,373.671265 275.347687,373.671265 
	C275.828094,373.942139 276.308533,374.212982 276.895142,374.741211 
	C277.001312,374.998596 277.015747,374.982056 277.015747,374.982056 
z"/>
<path fill="#B4B4B4" opacity="1.000000" stroke="none" 
	d="
M279.933960,379.074860 
	C279.605530,378.584442 279.277069,378.094025 278.974792,377.301392 
	C279.000946,376.999146 278.990234,377.012115 278.990234,377.012115 
	C279.369629,377.417633 279.749023,377.823181 280.094147,378.585876 
	C280.059875,378.943054 279.933960,379.074860 279.933960,379.074860 
z"/>
<path fill="#B4B4B4" opacity="1.000000" stroke="none" 
	d="
M267.952637,369.050507 
	C267.295013,368.993469 266.751160,368.812164 266.037689,368.394348 
	C265.868042,368.157806 266.113159,367.858765 266.234985,367.703033 
	C266.878418,367.777863 267.400024,368.008423 268.108215,368.458679 
	C268.294769,368.678375 268.066437,368.926239 267.952637,369.050507 
z"/>
<path fill="#5B5B5B" opacity="1.000000" stroke="none" 
	d="
M319.917480,363.102905 
	C320.280090,363.260468 320.476257,363.597504 320.672424,363.934540 
	C320.411957,363.986542 320.151459,364.038544 319.678802,363.885681 
	C319.466614,363.680878 319.751038,363.282410 319.917480,363.102905 
z"/>
<path fill="#9D86DA" opacity="1.000000" stroke="none" 
	d="
M455.130615,184.846359 
	C455.003540,184.935669 454.994232,184.455612 455.017487,184.216919 
	C455.351196,184.178986 455.423523,184.438583 455.130615,184.846359 
z"/>
<path fill="#D8D8D8" opacity="1.000000" stroke="none" 
	d="
M57.146473,410.870300 
	C57.331417,411.021484 57.412228,411.273315 57.493034,411.525116 
	C57.358204,411.499359 57.223377,411.473602 56.965523,411.314148 
	C56.842503,411.180450 57.042339,410.970886 57.146473,410.870300 
z"/>
<path fill="#B4B4B4" opacity="1.000000" stroke="none" 
	d="
M280.124207,378.878479 
	C280.394318,379.012787 280.600067,379.211700 280.805847,379.410583 
	C280.570740,379.441864 280.335663,379.473114 280.017273,379.289612 
	C279.933960,379.074860 280.059875,378.943054 280.124207,378.878479 
z"/>
<path fill="#B4B4B4" opacity="1.000000" stroke="none" 
	d="
M277.993774,376.007507 
	C278.280060,376.176605 278.566376,376.345734 278.921448,376.763489 
	C278.990234,377.012115 279.000946,376.999146 279.008057,376.992859 
	C278.707855,376.833557 278.400513,376.680511 278.046753,376.263580 
	C278.000336,375.999695 277.993774,376.007507 277.993774,376.007507 
z"/>
<path fill="#B4B4B4" opacity="1.000000" stroke="none" 
	d="
M278.005005,375.995667 
	C277.701965,375.835663 277.394196,375.679626 277.051086,375.252808 
	C277.015747,374.982056 277.001312,374.998596 276.993286,375.005371 
	C277.275970,375.176880 277.566650,375.341614 277.925568,375.756897 
	C277.993774,376.007507 278.000336,375.999695 278.005005,375.995667 
z"/>
<path fill="#B4B4B4" opacity="1.000000" stroke="none" 
	d="
M274.192078,372.804993 
	C274.602905,372.826599 274.864075,373.017212 275.216675,373.466644 
	C275.347687,373.671265 275.110352,373.893158 274.991791,374.005219 
	C274.545166,374.033936 274.281311,373.855560 273.971924,373.366089 
	C273.862152,373.149963 274.081909,372.919830 274.192078,372.804993 
z"/>
<path fill="#FDFBFD" opacity="1.000000" stroke="none" 
	d="
M252.282959,122.385864 
	C261.411774,128.177094 263.589233,137.346603 257.957031,145.003235 
	C252.863403,151.927734 243.210983,153.026276 236.376236,147.459366 
	C230.948685,143.038620 229.421478,135.239792 232.763138,129.008728 
	C236.479126,122.079681 243.577835,119.561722 252.282959,122.385864 
z"/>
<path fill="#FDFBFC" opacity="1.000000" stroke="none" 
	d="
M311.556458,122.091743 
	C318.980835,126.338104 322.182587,132.386459 320.773956,138.915085 
	C319.371826,145.413620 313.695465,150.584869 307.246674,150.942245 
	C300.891876,151.294418 295.968048,148.702560 292.846619,143.073822 
	C289.815613,137.608231 290.375702,131.102295 294.561462,126.388481 
	C299.046875,121.337204 304.637024,119.660858 311.556458,122.091743 
z"/>
<path fill="#FDFBFD" opacity="1.000000" stroke="none" 
	d="
M354.395508,145.496857 
	C350.113800,139.440689 349.726501,133.493576 353.679749,127.591599 
	C357.139526,122.426254 362.259125,120.205780 368.316071,121.197998 
	C374.558594,122.220619 378.720795,126.048164 380.483002,132.239334 
	C382.232178,138.384674 379.546967,145.134964 374.008759,148.635178 
	C367.610077,152.679245 361.152405,151.730804 354.395508,145.496857 
z"/>
</svg>